<svg width="26" height="26" viewBox="0 0 26 26" fill="none" xmlns="http://www.w3.org/2000/svg">
<path d="M12.1875 19.5C12.1875 19.7155 12.2731 19.9222 12.4255 20.0745C12.5778 20.2269 12.7845 20.3125 13 20.3125C13.2155 20.3125 13.4222 20.2269 13.5745 20.0745C13.7269 19.9222 13.8125 19.7155 13.8125 19.5V16.25C13.8125 16.0345 13.7269 15.8278 13.5745 15.6755C13.4222 15.5231 13.2155 15.4375 13 15.4375C12.7845 15.4375 12.5778 15.5231 12.4255 15.6755C12.2731 15.8278 12.1875 16.0345 12.1875 16.25V19.5Z" fill="#62C0A1"/>
<path fill-rule="evenodd" clip-rule="evenodd" d="M13 1.35425C12.233 1.35425 11.5364 1.57416 10.7791 1.94141C10.049 2.29675 9.20396 2.82108 8.14988 3.47541L5.91063 4.86533C4.91396 5.485 4.11338 5.98116 3.49804 6.45241C2.85996 6.93991 2.37029 7.43825 2.01604 8.085C1.66288 8.72958 1.50471 9.41641 1.42779 10.2278C1.35413 11.0132 1.35413 11.9752 1.35413 13.181V14.9284C1.35413 16.9911 1.35413 18.6193 1.51988 19.8922C1.68888 21.1977 2.04638 22.2517 2.85238 23.0848C3.66163 23.9222 4.69079 24.2971 5.96696 24.4737C7.20196 24.6459 8.78146 24.6459 10.7705 24.6459H15.2295C17.2185 24.6459 18.798 24.6459 20.033 24.4737C21.308 24.2971 22.3383 23.9222 23.1486 23.0848C23.9535 22.2517 24.311 21.1977 24.4811 19.8922C24.6458 18.6193 24.6458 16.9911 24.6458 14.9284V13.181C24.6458 11.9752 24.6458 11.0143 24.5721 10.2278C24.4963 9.41533 24.337 8.72958 23.9839 8.085C23.6296 7.43825 23.1389 6.941 22.5019 6.45241C21.8865 5.98008 21.087 5.485 20.0893 4.86533L17.85 3.47541C16.796 2.82108 15.951 2.29675 15.2197 1.94141C14.4646 1.57308 13.768 1.35425 13 1.35425ZM8.96996 4.87941C10.0695 4.19691 10.8441 3.71808 11.4909 3.40283C12.1203 3.09625 12.5666 2.97925 13 2.97925C13.4333 2.97925 13.8796 3.09625 14.509 3.40283C15.1569 3.717 15.9304 4.19691 17.03 4.87941L19.1966 6.22383C20.2377 6.87058 20.969 7.3245 21.515 7.74266C22.0447 8.14891 22.3491 8.48366 22.5582 8.865C22.7673 9.24741 22.8897 9.69483 22.9536 10.3795C23.0197 11.0815 23.0208 11.9666 23.0208 13.2211V14.8688C23.0208 17.003 23.0186 18.5262 22.8691 19.6821C22.7218 20.8174 22.4434 21.4761 21.9808 21.956C21.5204 22.4316 20.8942 22.7143 19.8098 22.8649C18.6983 23.0187 17.2325 23.0209 15.1666 23.0209H10.8333C8.76629 23.0209 7.30163 23.0187 6.19013 22.8649C5.10571 22.7132 4.47954 22.4316 4.02021 21.9549C3.55654 21.4761 3.27813 20.8174 3.13188 19.6821C2.98021 18.5262 2.97913 17.0041 2.97913 14.8688V13.2211C2.97913 11.9666 2.97913 11.0815 3.04629 10.3795C3.11021 9.69483 3.23263 9.24741 3.44171 8.865C3.65079 8.48366 3.95521 8.14891 4.48604 7.74266C5.03096 7.3245 5.76221 6.87058 6.80329 6.22383L8.96996 4.87941Z" fill="#62C0A1"/>
</svg>
