<svg width="26" height="26" viewBox="0 0 26 26" fill="none" xmlns="http://www.w3.org/2000/svg">
<path d="M19.2346 15.1667C19.8807 15.1673 20.5001 15.4243 20.9567 15.8814C21.4134 16.3385 21.6699 16.9581 21.6699 17.6042V18.2271C21.6699 19.1956 21.3232 20.1327 20.6949 20.8683C18.9941 22.854 16.4081 23.8344 13 23.8344C9.59181 23.8344 7.00698 22.854 5.31048 20.8661C4.68281 20.1309 4.33787 19.196 4.33765 18.2293V17.6031C4.33793 16.957 4.59472 16.3375 5.05157 15.8806C5.50843 15.4238 6.12797 15.167 6.77406 15.1667H19.2346ZM19.2346 16.7917H6.77298C6.55749 16.7917 6.35083 16.8773 6.19846 17.0297C6.04608 17.1821 5.96048 17.3887 5.96048 17.6042V18.2293C5.96048 18.8089 6.16848 19.37 6.54548 19.811C7.9029 21.4024 10.0338 22.2094 12.9989 22.2094C15.9661 22.2094 18.0971 21.4024 19.4588 19.812C19.8365 19.3704 20.044 18.8083 20.0438 18.2271V17.6031C20.0435 17.3882 19.9581 17.1821 19.8062 17.0301C19.6543 16.878 19.4495 16.7923 19.2346 16.7917ZM13 2.17212C13.7113 2.17212 14.4157 2.31223 15.0728 2.58444C15.73 2.85665 16.3272 3.25564 16.8301 3.75862C17.3331 4.26161 17.7321 4.85874 18.0043 5.51592C18.2765 6.1731 18.4166 6.87746 18.4166 7.58879C18.4166 8.30011 18.2765 9.00447 18.0043 9.66165C17.7321 10.3188 17.3331 10.916 16.8301 11.4189C16.3272 11.9219 15.73 12.3209 15.0728 12.5931C14.4157 12.8653 13.7113 13.0055 13 13.0055C11.5634 13.0055 10.1856 12.4348 9.16982 11.4189C8.154 10.4031 7.58331 9.02537 7.58331 7.58879C7.58331 6.1522 8.154 4.77445 9.16982 3.75862C10.1856 2.7428 11.5634 2.17212 13 2.17212ZM13 3.79712C12.5021 3.79712 12.009 3.89519 11.549 4.08574C11.0889 4.27629 10.671 4.55558 10.3189 4.90767C9.96678 5.25976 9.68749 5.67775 9.49694 6.13778C9.30639 6.5978 9.20831 7.09086 9.20831 7.58879C9.20831 8.08671 9.30639 8.57977 9.49694 9.03979C9.68749 9.49982 9.96678 9.91781 10.3189 10.2699C10.671 10.622 11.0889 10.9013 11.549 11.0918C12.009 11.2824 12.5021 11.3805 13 11.3805C14.0056 11.3805 14.97 10.981 15.6811 10.2699C16.3922 9.55882 16.7916 8.5944 16.7916 7.58879C16.7916 6.58317 16.3922 5.61875 15.6811 4.90767C14.97 4.1966 14.0056 3.79712 13 3.79712Z" fill="#62C0A1"/>
</svg>
